<svg xmlns="http://www.w3.org/2000/svg" width="32" height="32" viewBox="0 0 32 32" fill="none">
    <path d="M25.9984 10.0005L24.0117 11.9872L20.0117 7.98716L21.9984 6.00049C22.5584 5.44049 23.2784 5.17383 23.9984 5.17383C24.7184 5.17383 25.4384 5.44049 25.9984 6.00049C27.1051 7.10716 27.1051 8.89383 25.9984 10.0005Z" fill="#2C427A"/>
    <path d="M23.0793 12.9336L8.66594 27.3336C7.55927 28.4403 5.7726 28.4403 4.66594 27.3336C3.55927 26.2269 3.55927 24.4403 4.66594 23.3336L19.0793 8.93359L23.0793 12.9336Z" fill="#2C427A"/>
    <path d="M13.266 4.66669L13.8127 2.81336C13.866 2.64002 13.8127 2.45336 13.6927 2.32002C13.5727 2.18669 13.3594 2.13336 13.186 2.18669L11.3327 2.73336L9.47937 2.18669C9.30604 2.13336 9.11937 2.18669 8.98604 2.30669C8.8527 2.44002 8.81271 2.62669 8.86604 2.80002L9.39937 4.66669L8.8527 6.52002C8.79937 6.69336 8.8527 6.88002 8.97271 7.01336C9.10604 7.14669 9.2927 7.18669 9.46604 7.13336L11.3327 6.60002L13.186 7.14669C13.2394 7.16002 13.2794 7.17336 13.3327 7.17336C13.466 7.17336 13.586 7.12002 13.6927 7.02669C13.826 6.89336 13.866 6.70669 13.8127 6.53336L13.266 4.66669Z" fill="#2C427A"/>
    <path d="M7.93401 12.6667L8.48067 10.8134C8.53401 10.64 8.48067 10.4534 8.36067 10.32C8.22734 10.1867 8.04067 10.1467 7.86734 10.2L6.00067 10.7334L4.14734 10.1867C3.97401 10.1334 3.78734 10.1867 3.65401 10.3067C3.52067 10.44 3.48067 10.6267 3.53401 10.8L4.06734 12.6667L3.52067 14.52C3.46734 14.6934 3.52067 14.88 3.64067 15.0134C3.77401 15.1467 3.96067 15.1867 4.13401 15.1334L5.98734 14.5867L7.84067 15.1334C7.88067 15.1467 7.93401 15.1467 7.98734 15.1467C8.12067 15.1467 8.24067 15.0934 8.34734 15C8.48067 14.8667 8.52067 14.68 8.46734 14.5067L7.93401 12.6667Z" fill="#2C427A"/>
    <path d="M27.933 19.3333L28.4796 17.4799C28.533 17.3066 28.4796 17.1199 28.3596 16.9866C28.2263 16.8533 28.0396 16.8133 27.8663 16.8666L26.013 17.4133L24.1596 16.8666C23.9863 16.8133 23.7996 16.8666 23.6663 16.9866C23.533 17.1199 23.493 17.3066 23.5463 17.4799L24.093 19.3333L23.5463 21.1866C23.493 21.3599 23.5463 21.5466 23.6663 21.6799C23.7996 21.8133 23.9863 21.8533 24.1596 21.7999L26.013 21.2533L27.8663 21.7999C27.9063 21.8133 27.9596 21.8133 28.013 21.8133C28.1463 21.8133 28.2663 21.7599 28.373 21.6666C28.5063 21.5333 28.5463 21.3466 28.493 21.1733L27.933 19.3333Z" fill="#2C427A"/>
</svg>
